<svg xmlns="http://www.w3.org/2000/svg" width="1600" height="800" viewBox="0 0 1600 800">
  <defs>
    <linearGradient id="bg" x1="0" y1="0" x2="1" y2="0">
      <stop offset="0" stop-color="#06131f"/>
      <stop offset="0.48" stop-color="#0b1a29"/>
      <stop offset="0.52" stop-color="#171521"/>
      <stop offset="1" stop-color="#18090f"/>
    </linearGradient>
    <radialGradient id="blue" cx="23%" cy="40%" r="55%">
      <stop offset="0" stop-color="#1bbcff" stop-opacity=".25"/>
      <stop offset="1" stop-color="#1bbcff" stop-opacity="0"/>
    </radialGradient>
    <radialGradient id="red" cx="78%" cy="40%" r="58%">
      <stop offset="0" stop-color="#ff2c45" stop-opacity=".28"/>
      <stop offset="1" stop-color="#ff2c45" stop-opacity="0"/>
    </radialGradient>
    <linearGradient id="stroke" x1="0" y1="0" x2="1" y2="0">
      <stop offset="0" stop-color="#31c7ff"/>
      <stop offset=".55" stop-color="#6bdcff"/>
      <stop offset="1" stop-color="#ff425d"/>
    </linearGradient>
    <pattern id="grid" width="48" height="48" patternUnits="userSpaceOnUse">
      <path d="M48 0H0V48" fill="none" stroke="#8fb8ca" stroke-opacity=".05"/>
    </pattern>
    <filter id="glow" x="-50%" y="-50%" width="200%" height="200%">
      <feGaussianBlur stdDeviation="5" result="b"/>
      <feMerge><feMergeNode in="b"/><feMergeNode in="SourceGraphic"/></feMerge>
    </filter>
  </defs>

  <rect width="1600" height="800" fill="url(#bg)"/>
  <rect width="1600" height="800" fill="url(#grid)"/>
  <rect width="1600" height="800" fill="url(#blue)"/>
  <rect width="1600" height="800" fill="url(#red)"/>

  <g fill="none" stroke-linecap="round" stroke-width="2">
    <path d="M90 215 C330 70 570 110 760 230" stroke="#28bfff" stroke-opacity=".64"/>
    <path d="M150 310 C360 190 575 205 760 305" stroke="#28bfff" stroke-opacity=".46"/>
    <path d="M840 230 C1080 75 1310 105 1510 220" stroke="#ff3a50" stroke-opacity=".74"/>
    <path d="M840 305 C1080 200 1290 270 1510 440" stroke="#ff3a50" stroke-opacity=".60"/>
    <path d="M840 355 C1060 490 1280 495 1510 610" stroke="#ff3a50" stroke-opacity=".42"/>
  </g>

  <g fill="#e5f9ff" filter="url(#glow)">
    <circle cx="90" cy="215" r="5"/><circle cx="150" cy="310" r="4"/><circle cx="430" cy="135" r="4"/>
  </g>
  <g fill="#ff4057" filter="url(#glow)">
    <circle cx="1110" cy="165" r="5"/><circle cx="1300" cy="330" r="5"/><circle cx="1510" cy="220" r="5"/><circle cx="1510" cy="440" r="5"/>
  </g>

  <!-- Oversized center card with intentionally conservative typography -->
  <g transform="translate(490 165)">
    <rect x="0" y="0" width="620" height="250" rx="24" fill="#09131e" stroke="url(#stroke)" stroke-width="2.2"/>
    <rect x="22" y="22" width="576" height="206" rx="16" fill="#09121b" stroke="#8bb7c9" stroke-opacity=".10"/>

    <circle cx="82" cy="86" r="33" fill="#0d2434" stroke="#35c7ff" stroke-width="3"/>
    <circle cx="82" cy="86" r="12" fill="#dff7ff"/>
    <circle cx="82" cy="86" r="5" fill="#0d2434"/>

    <text x="145" y="82" fill="#f4f9fc" font-family="Arial,Helvetica,sans-serif" font-size="28" font-weight="700">TRUSTED UPDATE</text>
    <text x="145" y="116" fill="#80b6cf" font-family="Consolas,monospace" font-size="17">signed · verified · deployed</text>

    <line x1="48" y1="150" x2="572" y2="150" stroke="#6b8998" stroke-opacity=".52" stroke-width="2"/>
    <rect x="48" y="170" width="524" height="40" rx="8" fill="#0c1722" stroke="#7998a8" stroke-opacity=".14"/>
    <text x="70" y="196" fill="#ff4258" font-family="Consolas,monospace" font-size="19">// hidden backdoor</text>
  </g>

  <text x="72" y="570" fill="#eef9ff" font-family="Arial,Helvetica,sans-serif" font-size="74" font-weight="700" letter-spacing="1">SOLARWINDS</text>
  <text x="74" y="628" fill="#ff4658" font-family="Arial,Helvetica,sans-serif" font-size="32" font-weight="700" letter-spacing="4">SUPPLY-CHAIN COMPROMISE</text>
  <text x="76" y="675" fill="#a6bdc9" font-family="Arial,Helvetica,sans-serif" font-size="22" letter-spacing="2.2">WHEN TRUST BECAME THE ATTACK SURFACE.</text>

  <line x1="1225" y1="70" x2="1262" y2="70" stroke="#8ca1ad" stroke-width="1.3"/>
  <text x="1515" y="77" text-anchor="end" fill="#c0ced6" font-family="Consolas,monospace" font-size="16" letter-spacing="4">TECHNICAL CASE STUDY</text>

  <text x="1515" y="708" text-anchor="end" fill="#f4f7f9" font-family="Arial,Helvetica,sans-serif" font-size="20" font-weight="700">@MICHEL-DV</text>
  <text x="1515" y="738" text-anchor="end" fill="#91a6b1" font-family="Consolas,monospace" font-size="14">CC BY-NC-ND 4.0 · 2026</text>
</svg>
